<svg xmlns="http://www.w3.org/2000/svg" xml:space="preserve" id="Layer_1" x="0" y="0" style="enable-background:new 0 0 1080 397.6" viewBox="0 0 1080 397.6"><style>.st1{fill:#183164}.st2{fill:#1e86c3}</style><path d="M0 0h1080v397.6H0z" style="fill:#fff"></path><path id="Layer_15_00000047765726554108070410000016946537488542675095_" d="M561.1 141.7h96.1c6.9 0 13.7 1.4 19.2 5.5 7.5 5.5 11.7 13 11.7 22.6-.7 32.3-21.3 57.7-52.9 63.2-2.8.7-4.8.7-7.5.7H436.8c-3.4 0-4.8-.7-3.4-4.8 2.8-9.6 4.8-19.9 6.9-29.5.7-3.4 2.1-4.1 5.5-4.1h191.5c4.1 0 5.5-1.4 6.2-4.8.7-3.4 1.4-6.2 2.1-9.6 1.4-3.4 0-4.1-3.4-4.1H484.3c-14.4 0-25.4-8.9-28.1-21.3v-1.4c-2.1-11.7-1.4-13 11-13l93.9.6z" class="st1"></path><path id="Layer_14_00000147909696195490009890000006322466717236105373_" d="M205.4 152.7h-20.6c-2.1 0-3.4 0-4.1-2.8-1.4-3.4-4.1-5.5-8.2-8.2h269.8c6.2 0 6.2 0 4.1 6.2-6.9 18.5-25.4 30.2-46.7 30.2H245.9c-5.5 0-6.9 1.4-8.2 6.2-4.1 15.1-9.6 30.9-13.7 46-.7 3.4-2.1 4.1-5.5 4.1H189c-2.8 0-3.4-.7-2.8-3.4 6.2-26.1 12.4-52.2 19.2-78.3z" class="st1"></path><path id="Layer_13_00000030476558724948596070000010249031484764698780_" d="m894.7 165.8 54.9-33c0 11-3.4 19.9-10.3 27.5-11 11-25.4 17.2-40.5 17.2-52.2.7-104.3 0-155.8 0-3.4 0-5.5 1.4-6.2 4.8-4.1 16.5-8.2 32.3-12.4 48.1-.7 2.8-2.1 3.4-4.8 3.4H688c-2.8 0-4.1 0-2.8-3.4 7.5-28.2 15.1-57 22.7-85.1.7-2.8 2.1-3.4 4.8-3.4h180.5c3.4 0 4.1 1.4 3.4 4.1-1.2 6-1.9 12.9-1.9 19.8z" class="st1"></path><path id="Layer_12_00000123440487565916354960000008827384905503742608_" d="M126.5 103.3h89.9c2.8 0 5.5-1.4 6.2-4.1 2.8-4.1 2.8-9.6 1.4-14.4h200.5c13.7 0 28.8 14.4 28.8 27.5 0 2.8-.7 4.1-4.1 4.1H140.3c-2.1 0-3.4-.7-4.1-2.8-2.1-3.4-5.6-6.9-9.7-10.3z" class="st2"></path><path id="Layer_11_00000045583246313239499350000003432735539337733785_" d="M710.7 85.4c-3.4 10.3-6.9 20.6-10.3 30.2-.7 1.4-2.1 2.1-2.8 2.1H466.9c-1.4 0-3.4.7-4.1-.7-.7-1.4.7-2.8 2.1-4.1 11.7-16.5 27.5-26.8 48.1-26.8 64.5-.7 129.8-.7 195-.7h2.7z" class="st2"></path><path id="Layer_10_00000083794273592954960460000004220748198109390761_" d="M712.8 117c3.4-9.6 6.2-19.9 9.6-28.8 0-1.4 1.4-2.8 3.4-2.8h193c8.9 0 17.8 3.4 24.7 8.9 9.6 6.9 11 17.2 9.6 28.1-.7 2.8-2.1 2.1-3.4 1.4-14.4-7.5-28.8-14.4-43.2-22-1.4-.7-2.8-1.4-4.1-2.1-.7 5.5-2.1 10.3-2.8 14.4-.7 2.1-.7 3.4-3.4 3.4H715c-.8.2-1.5-.5-2.2-.5z" class="st2"></path><path id="Layer_9_00000074423105431303937690000002020187157776152968_" d="M507.5 311.3c6.9-13 13-26.1 19.2-38.4.7-1.4 2.1-2.1 3.4-2.1h22.7c4.1 0 8.2.7 10.3 4.1 2.1 4.1-.7 7.5-2.8 11s-5.5 6.2-9.6 7.5c-2.1.7-2.8 1.4-2.1 4.1.7 3.4 1.4 6.9 2.1 10.3.7 2.1 0 2.8-2.1 2.8h-.6c-10.3.7-10.3.7-11.7-9.6-.7-2.1.7-4.8-2.8-5.5s-7.5-1.4-8.2 3.4c0 .7-.7 1.4-.7 1.4-4.7 11.7-4.7 11.7-17.1 11zm33.7-30.9c-2.8-.7-6.9-.7-8.2 4.8 0 .7-1.4 2.1.7 2.1 4.8 0 8.9.7 13-.7 2.1-.7 3.4-2.1 3.4-4.1-.7-2.1-2.8-1.4-4.1-1.4-1.4-.7-2.8-.7-4.8-.7z" class="st2"></path><path id="Layer_8_00000164482732376837134870000006003603384153687222_" d="M740.9 312v-1.4c2.1-6.2 5.5-8.9 12.4-8.2 4.8.7 9.6.7 14.4 0 2.1 0 3.4-.7 5.5-.7 2.1-.7 3.4-2.1 3.4-4.1-.7-2.1-2.8-1.4-4.1-1.4h-13c-8.2-.7-11-5.5-6.9-13 2.8-6.2 8.2-10.3 15.1-11 11-2.1 22-.7 33.6-.7-1.4 3.4-2.8 5.5-4.1 8.2-.7 2.1-2.1 1.4-3.4 1.4h-20.6c-2.8-.7-5.5.7-7.5 2.8-.7.7-1.4 1.4-.7 2.8s1.4.7 2.1.7h12.4c2.1 0 4.1 0 5.5.7 4.8.7 6.9 4.1 5.5 8.2-2.8 8.2-8.2 13.7-17.2 15.1-10.4 1.3-21.4-.1-32.4.6z" class="st2"></path><path id="Layer_7_00000051376734973920760160000009408001487529671608_" d="M861.1 311.3c4.1-9.6 4.1-9.6 13-9.6h14.4c2.1 0 3.4 0 5.5-.7s3.4-2.1 3.4-4.1c-.7-2.1-2.8-1.4-4.1-1.4-4.8 0-8.9 0-13.7-.7-7.5-.7-10.3-5.5-6.9-12.4 2.8-6.2 8.2-10.3 15.1-11.7 11-2.1 22-.7 33.6-.7-1.4 3.4-2.8 5.5-4.1 8.2-.7 2.1-2.1 1.4-3.4 1.4h-20.6c-2.8 0-5.5.7-7.5 2.8-.7.7-2.1 2.1-1.4 2.8s2.1.7 2.8.7c5.5 0 11-.7 16.5.7 6.2.7 8.2 4.1 6.2 10.3-3.4 9.6-11 13.7-20.6 13.7-9 1.4-18.6.7-28.2.7z" class="st2"></path><path id="Layer_6_00000116220225446053156830000003036137930685330056_" d="M665.4 302.4c-1.4 2.8-2.8 5.5-4.1 7.5 0 1.4-1.4 2.1-2.8 2.1-6.9 0-13.7.7-20.6-.7-7.5-1.4-11-6.9-8.9-14.4 6.9-19.2 18.5-25.4 33.6-25.4h17.8c-1.4 2.8-2.8 5.5-4.1 7.5-.7 2.1-2.1 1.4-3.4 1.4h-13c-4.8 0-8.9 2.1-11.7 6.2H673c-1.4 3.4-2.8 5.5-4.1 8.2-.7 2.1-2.1 1.4-3.4 1.4H647c-2.8 0-4.8 0-4.8 3.4s2.8 3.4 4.8 3.4c6-.6 11.5-.6 18.4-.6z" class="st2"></path><path id="Layer_5_00000057840111006265678700000007659521294137908888_" d="M178.7 286.6h20.6c2.8 0 3.4.7 2.1 3.4-2.1 4.8-4.8 6.9-9.6 6.2-5.5-.7-10.3 0-15.1 0-2.8 0-4.1.7-4.1 3.4 0 2.8 2.1 3.4 4.1 3.4h14.4c2.8 0 3.4 0 2.1 3.4-2.1 4.8-4.1 6.9-9.6 6.2s-10.3-.7-15.8-1.4c-7.6-1.4-11-6.9-8.2-14.4 4.8-16.5 17.2-25.4 33.6-25.4h14.4c2.8 0 2.8.7 2.1 2.8-2.1 4.8-4.1 7.5-9.6 6.2-3.4-.7-7.6-.7-11 0-4.9 0-7.7 2.1-10.4 6.2z" class="st2"></path><path id="Layer_4_00000041978227886709424840000001544931859075384728_" d="m390.1 311.3 19.2-38.4c.7-1.4 1.4-2.1 2.8-2.1 8.9.7 17.9-.7 26.1.7s10.3 6.2 6.9 13.7c-4.1 8.2-11.7 11.7-20.6 13h-2.8c-8.9-1.4-15.8 1.4-17.9 11-.7 2.1-2.1 2.8-4.1 2.8-2.7-.7-6.2-.7-9.6-.7zm24-22.6c4.8 0 8.2.7 12.4-.7 2.8-.7 4.8-2.1 6.2-4.8.7-1.4.7-2.8-1.4-2.8-4.1-.7-8.2-.7-12.4 0-2.7 1.4-3.4 5.5-4.8 8.3z" class="st2"></path><path id="Layer_3_00000065065251312085595880000006731625297530823076_" d="M272.7 123.9c-2.8 2.8-4.8 5.5-6.9 8.2-1.4 1.4-2.8 2.1-4.1 1.4h-90.6c-1.4 0-2.8 0-3.4-2.1-1.4-3.4-4.1-6.2-7.6-8.2l112.6.7z" class="st1"></path><path id="Layer_2_00000126309997518251254820000001633313087348210834_" d="M294 299.6c-8.2 7.5-16.5 15.1-28.8 11-.7-.7 1.4-1.4 2.1-1.4 6.9-5.5 13.7-11 20.6-15.8 2.8-2.1 3.4-3.4 2.1-6.2-1.4-4.1-2.8-8.9-4.1-13-.7-2.8 0-2.8 2.1-2.8 10.3-.7 10.3-.7 13.7 11 7.5-7.5 15.8-13.7 27.5-10.3-6.9 5.5-13.7 11-21.3 16.5-2.8 2.1-3.4 4.1-2.1 6.9 1.4 4.1 2.1 8.2 3.4 12.4.7 2.8.7 4.1-2.8 4.1-9.6 0-9.6 0-12.4-12.4z" class="st2"></path></svg>